# 3ds Max Wavefront OBJ Exporter v0.97b - (c)2007 guruware
# File Created: 23.02.2019 03:25:25

mtllib wood_crate.mtl

#
# object low_poly_crate_001
#

v  -0.5000 1.0000 0.5000
v  0.5000 1.0000 0.5000
v  0.5000 1.0000 -0.5000
v  -0.5000 1.0000 -0.5000
v  -0.5000 0.0000 0.5000
v  0.5000 0.0000 0.5000
v  0.5000 -0.0000 -0.5000
v  -0.5000 -0.0000 -0.5000
# 8 vertices

vn -0.0000 1.0000 -0.0000
vn 0.0000 0.0000 1.0000
vn 1.0000 0.0000 -0.0000
vn 0.0000 -1.0000 0.0000
vn -1.0000 -0.0000 -0.0000
vn -0.0000 -0.0000 -1.0000
# 6 vertex normals

vt 0.3808 0.4999 0.0000
vt 0.6195 0.4999 0.0000
vt 0.6195 0.7386 0.0000
vt 0.3808 0.7386 0.0000
vt 0.3808 0.2612 0.0000
vt 0.6195 0.2612 0.0000
vt 0.8582 0.2612 0.0000
vt 0.8582 0.4999 0.0000
vt 0.6195 0.0225 0.0000
vt 0.3808 0.0225 0.0000
vt 0.1421 0.4999 0.0000
vt 0.1421 0.2612 0.0000
vt 0.6195 0.9773 0.0000
vt 0.3808 0.9773 0.0000
# 14 texture coords

g low_poly_crate_001
usemtl wire_086086086
s off
f 1/1/1 2/2/1 3/3/1 4/4/1 
f 5/5/2 6/6/2 2/2/2 1/1/2 
f 6/6/3 7/7/3 3/8/3 2/2/3 
f 7/9/4 6/6/4 5/5/4 8/10/4 
f 5/5/5 1/1/5 4/11/5 8/12/5 
f 3/3/6 7/13/6 8/14/6 4/4/6 
# 6 polygons

